{"title":"Sanctum.2011.BRRip.720p.x264.Feel-Free","uid":6330007,"size":2772816352,"categoryP":"video","categoryS":"hd___movies","magnet":"?xt=urn:btih:743de08b26ff651f45739829550da75930d2fd03&amp;dn=Sanctum.2011.BRRip.720p.x264.Feel-Free&amp;tr=udp%3A%2F%2Ftracker.openbittorrent.com%3A80&amp;tr=udp%3A%2F%2Fopen.demonii.com%3A1337&amp;tr=udp%3A%2F%2Ftracker.coppersurfer.tk%3A6969&amp;tr=udp%3A%2F%2Fexodus.desync.com%3A6969","seeders":0,"leechers":0,"uploader":".BONE.","files":8,"time":1303245659,"description":"\nGenre:Action | Adventure | Drama\nLanguage:English\n &lt;a href=&quot;\nhttp://www.imdb.com/title/tt0881320/&quot; rel=&quot;nofollow&quot; target=&quot;_NEW&quot;&gt;\nhttp://www.imdb.com/title/tt0881320/&lt;/a&gt;\n\nSource:1080p.DTS.x264-CHD\n\n\nFormat : MPEG-4\nFormat profile : Base Media\nCodec ID : isom\nFile size : 2.58 GiB\nDuration : 1h 48mn\nOverall bit rate : 3 393 Kbps\n\n\nVideo\nFormat profile : &lt;a class=&quot;__cf_email__&quot; href=&quot;/cdn-cgi/l/email-protection&quot; data-cfemail=&quot;82caebe5eac2ceb6acb3&quot;&gt;[email&amp;#160;protected]&lt;/a&gt;&lt;script cf-hash='f9e31' type=&quot;text/javascript&quot;&gt;\n/* &lt;![CDATA[ */!function(){try{var t=&quot;currentScript&quot;in document?document.currentScript:function(){for(var t=document.getElementsByTagName(&quot;script&quot;),e=t.length;e--;)if(t[e].getAttribute(&quot;cf-hash&quot;))return t[e]}();if(t&amp;&amp;t.previousSibling){var e,r,n,i,c=t.previousSibling,a=c.getAttribute(&quot;data-cfemail&quot;);if(a){for(e=&quot;&quot;,r=parseInt(a.substr(0,2),16),n=2;a.length-n;n+=2)i=parseInt(a.substr(n,2),16)^r,e+=String.fromCharCode(i);e=document.createTextNode(e),c.parentNode.replaceChild(e,c)}}}catch(u){}}();/* ]]&gt; */&lt;/script&gt;\nFormat settings, CABAC : Yes\nFormat settings, ReFrames : 3 frames\nCodec ID : avc1\nCodec ID/Info : Advanced Video Coding\nDuration : 1h 48mn\nBit rate mode : Variable\nBit rate : 3 000 Kbps\nMaximum bit rate : 11.0 Mbps\nWidth : 1 280 pixels\nHeight : 720 pixels\nDisplay aspect ratio : 16:9\nFrame rate mode : Constant\nFrame rate : 23.976 fps\nColor space : YUV\nChroma subsampling : 4:2:0\nBit depth : 8 bits\nScan type : Progressive\nBits/(Pixel*Frame) : 0.136\nStream size : 2.24 GiB (87%)\nWriting library : x264\n\n\nAudio\nID : 2\nFormat : AAC\nFormat/Info : Advanced Audio Codec\nFormat version : Version 4\nFormat profile : LC\nFormat settings, SBR : No\nCodec ID : 40\nDuration : 1h 48mn\nBit rate mode : Variable\nBit rate : 447 Kbps\nMaximum bit rate : 531 Kbps\nChannel(s) : 6 channels\nChannel positions : Front: L C R, Side: L R, LFE\nSampling rate : 48.0 KHz\nStream size : 348 MiB (13%)\n\n\nPlot:\nAn underwater cave diving team experiences a life-threatening crisis during an expedition to the unexplored and least accessible cave system in the world.\n &lt;a href=&quot;\nhttp://www.pix2links.com/images/41266447998781029921.png&quot; rel=&quot;nofollow&quot; target=&quot;_NEW&quot;&gt;\nhttp://www.pix2links.com/images/41266447998781029921.png&lt;/a&gt;\n &lt;a href=&quot;\nhttp://www.pix2links.com/images/59852515131886703466.png&quot; rel=&quot;nofollow&quot; target=&quot;_NEW&quot;&gt;\nhttp://www.pix2links.com/images/59852515131886703466.png&lt;/a&gt;\n &lt;a href=&quot;\nhttp://www.pix2links.com/images/71501058596706805444.png&quot; rel=&quot;nofollow&quot; target=&quot;_NEW&quot;&gt;\nhttp://www.pix2links.com/images/71501058596706805444.png&lt;/a&gt;\n &lt;a href=&quot;\nhttp://www.pix2links.com/images/64184337595669013541.png&quot; rel=&quot;nofollow&quot; target=&quot;_NEW&quot;&gt;\nhttp://www.pix2links.com/images/64184337595669013541.png&lt;/a&gt;\n &lt;a href=&quot;\nhttp://www.pix2links.com/images/54023555969188258960.png&quot; rel=&quot;nofollow&quot; target=&quot;_NEW&quot;&gt;\nhttp://www.pix2links.com/images/54023555969188258960.png&lt;/a&gt;\n\n","torrent":{"xt":"urn:btih:743de08b26ff651f45739829550da75930d2fd03","amp;dn":"Sanctum.2011.BRRip.720p.x264.Feel-Free","amp;tr":["udp%3A%2F%2Ftracker.openbittorrent.com%3A80","udp%3A%2F%2Fopen.demonii.com%3A1337","udp%3A%2F%2Ftracker.coppersurfer.tk%3A6969","udp%3A%2F%2Fexodus.desync.com%3A6969"],"infoHash":"743de08b26ff651f45739829550da75930d2fd03","infoHashBuffer":{"type":"Buffer","data":[116,61,224,139,38,255,101,31,69,115,152,41,85,13,167,89,48,210,253,3]},"announce":[],"urlList":[]}}